<?xml version="1.0" encoding="utf-8"?>
<!-- Generator: Adobe Illustrator 19.2.1, SVG Export Plug-In . SVG Version: 6.00 Build 0)  -->
<svg version="1.1" id="Calque_1" xmlns="http://www.w3.org/2000/svg" xmlns:xlink="http://www.w3.org/1999/xlink" x="0px" y="0px"
	 viewBox="0 0 522 64.5" style="enable-background:new 0 0 522 64.5;" xml:space="preserve">
<style type="text/css">
	.st0{fill:#B01D22;}
	.st1{fill:#686867;}
	.st2{fill:#A6A6A6;}
</style>
<g>
	<path class="st0" d="M19.6,18.99c0,1.2-0.2,2.3-0.6,3.3s-0.9,1.8-1.7,2.5c-0.7,0.7-1.7,1.2-2.7,1.6c-1.1,0.4-2.4,0.6-3.8,0.6H5.6
		v8.9H1.1v-24.9h9.7c1.4,0,2.7,0.2,3.8,0.6c1.1,0.4,2,0.9,2.7,1.6s1.3,1.5,1.7,2.5C19.4,16.69,19.6,17.79,19.6,18.99z M15,18.99
		c0-1.2-0.4-2.2-1-2.9c-0.7-0.7-1.8-1.1-3.3-1.1H5.6v8h5.1c1.5,0,2.6-0.4,3.3-1.1C14.7,21.19,15,20.19,15,18.99z"/>
	<path class="st0" d="M41.7,26.29c0,1.5-0.2,2.8-0.6,4c-0.4,1.2-1,2.3-1.8,3.1c-0.8,0.9-1.8,1.6-3,2c-1.2,0.5-2.6,0.7-4.2,0.7
		c-1.6,0-3-0.2-4.2-0.7s-2.2-1.2-3-2c-0.8-0.9-1.4-1.9-1.8-3.1s-0.6-2.6-0.6-4v-15.3H27v15.2c0,1.8,0.4,3.2,1.3,4.3
		c0.8,1.1,2.2,1.6,4,1.6c1.8,0,3.1-0.5,4-1.6c0.8-1.1,1.3-2.5,1.3-4.3v-15.2h4.5v15.3H41.7z"/>
	<path class="st0" d="M65.8,28.59c0,1.1-0.2,2.2-0.6,3.1c-0.4,1-1,1.8-1.9,2.5c-1,0.7-2,1.2-3.2,1.4c-1.1,0.2-2.3,0.3-3.5,0.3h-9.8
		v-24.9h9.9c1,0,2,0.1,3,0.3s1.9,0.5,2.7,1.1c0.9,0.6,1.6,1.4,2.1,2.3c0.5,1,0.8,2,0.8,3c0,0.5-0.1,1-0.2,1.5s-0.3,1-0.6,1.5
		c-0.3,0.5-0.6,0.9-1,1.3c-0.4,0.4-0.8,0.7-1.3,0.9c1.2,0.5,2.1,1.3,2.7,2.3S65.8,27.49,65.8,28.59z M60.7,18.09
		c0-0.6-0.1-1.1-0.3-1.5c-0.2-0.4-0.5-0.7-0.8-1c-0.4-0.2-0.8-0.4-1.2-0.5c-0.4-0.1-1-0.2-1.5-0.2h-5.6v6.2H57c0.5,0,1-0.1,1.5-0.2
		c0.5-0.1,0.9-0.3,1.2-0.5c0.3-0.2,0.6-0.5,0.8-0.9C60.6,19.09,60.7,18.69,60.7,18.09z M61.2,28.49c0-1.3-0.4-2.3-1.2-2.8
		c-0.8-0.5-1.8-0.8-3-0.8h-5.7v6.9h5.5c0.5,0,1-0.1,1.6-0.2s1-0.3,1.4-0.5c0.4-0.3,0.8-0.6,1-1C61.1,29.69,61.2,29.19,61.2,28.49z"
		/>
	<path class="st0" d="M70,35.89v-24.9h4.5v20.6H86v4.3H70z"/>
	<path class="st0" d="M89.3,35.89v-24.9h4.6v24.8h-4.6V35.89z"/>
	<path class="st0" d="M117.8,27.89c-0.1,1-0.4,1.9-0.7,2.9c-0.4,0.9-0.9,1.8-1.6,2.5c-0.9,1-2,1.7-3.3,2.2c-1.2,0.5-2.5,0.8-3.8,0.8
		s-2.6-0.2-3.8-0.7c-1.2-0.4-2.3-1.1-3.2-2.1c-0.7-0.7-1.2-1.4-1.6-2.1s-0.7-1.5-0.9-2.4c-0.2-0.8-0.3-1.7-0.4-2.6s-0.1-1.9-0.1-2.9
		s0-2,0.1-2.9s0.2-1.8,0.4-2.7s0.5-1.6,0.9-2.4c0.4-0.7,1-1.5,1.6-2.1c1-1,2-1.7,3.2-2.1c1.2-0.5,2.5-0.7,3.8-0.7s2.6,0.2,3.8,0.7
		c1.2,0.5,2.3,1.2,3.3,2.2c0.7,0.7,1.3,1.6,1.6,2.5c0.4,0.9,0.6,1.9,0.7,2.9h-4.6c0-0.5-0.2-1-0.3-1.4c-0.2-0.4-0.4-0.8-0.8-1.2
		c-0.4-0.5-0.9-0.9-1.6-1.2c-0.7-0.3-1.4-0.4-2.2-0.4c-0.7,0-1.4,0.1-2.1,0.4s-1.2,0.7-1.7,1.2c-0.4,0.4-0.7,1-1,1.5
		c-0.2,0.6-0.4,1.2-0.5,1.8s-0.2,1.3-0.2,1.9c0,0.7,0,1.3,0,1.8s0,1.2,0,1.8c0,0.7,0.1,1.3,0.2,1.9s0.3,1.3,0.5,1.8
		c0.2,0.6,0.6,1.1,1,1.5c0.5,0.5,1.1,0.9,1.7,1.2c0.7,0.3,1.4,0.4,2.1,0.4c0.8,0,1.5-0.1,2.2-0.4s1.2-0.7,1.6-1.2
		c0.7-0.8,1-1.7,1.1-2.7h4.6C117.8,27.59,117.8,27.89,117.8,27.89z"/>
	<path class="st0" d="M135.9,35.89l-1.6-4.8h-9.9l-1.6,4.8h-4.5l8.7-24.8h4.9l8.7,24.8H135.9z M129.3,16.59l-3.5,10.4h7.1
		L129.3,16.59z"/>
	<path class="st0" d="M150.2,15.19v20.6h-4.5v-20.6h-7.4v-4.2h19.2v4.2H150.2z"/>
	<path class="st0" d="M160.7,35.89v-24.9h4.6v24.8h-4.6V35.89z"/>
	<path class="st0" d="M190.2,23.49c0,1,0,2-0.1,2.9s-0.2,1.8-0.5,2.6c-0.2,0.8-0.6,1.6-1,2.4c-0.4,0.7-1,1.5-1.6,2.1
		c-1,1-2.1,1.7-3.3,2.1c-1.2,0.5-2.5,0.7-3.9,0.7c-1.3,0-2.6-0.2-3.8-0.7s-2.3-1.2-3.3-2.1c-0.7-0.7-1.2-1.4-1.6-2.1
		c-0.4-0.7-0.7-1.5-1-2.4c-0.2-0.8-0.4-1.7-0.5-2.6s-0.1-1.9-0.1-2.9s0-2,0.1-2.9s0.2-1.8,0.5-2.7s0.6-1.6,1-2.4
		c0.4-0.7,1-1.5,1.6-2.1c1-1,2.1-1.7,3.3-2.1c1.2-0.5,2.5-0.7,3.8-0.7s2.6,0.2,3.9,0.7c1.2,0.5,2.3,1.2,3.3,2.1
		c0.7,0.7,1.2,1.4,1.6,2.1c0.4,0.7,0.7,1.5,1,2.4c0.3,0.9,0.4,1.7,0.5,2.7C190.2,21.49,190.2,22.49,190.2,23.49z M185.6,23.49
		c0-0.6,0-1.2,0-1.8c0-0.7-0.1-1.3-0.2-1.9c-0.1-0.6-0.3-1.3-0.5-1.8c-0.2-0.6-0.6-1.1-1-1.5c-0.5-0.5-1.1-0.9-1.8-1.2
		c-0.7-0.3-1.4-0.4-2.1-0.4c-0.7,0-1.4,0.1-2.1,0.4c-0.7,0.3-1.3,0.7-1.8,1.2c-0.4,0.4-0.8,1-1,1.5c-0.2,0.6-0.4,1.2-0.5,1.8
		s-0.2,1.3-0.2,1.9c0,0.7,0,1.3,0,1.8s0,1.2,0,1.8s0.1,1.3,0.2,1.9c0.1,0.6,0.3,1.2,0.5,1.8c0.2,0.6,0.6,1.1,1,1.5
		c0.5,0.5,1.1,0.9,1.8,1.2c0.7,0.3,1.4,0.4,2.1,0.4c0.7,0,1.4-0.1,2.1-0.4c0.7-0.3,1.3-0.7,1.8-1.2c0.4-0.4,0.8-1,1-1.5
		c0.2-0.6,0.4-1.2,0.5-1.8c0.1-0.6,0.2-1.3,0.2-1.9C185.6,24.59,185.6,23.99,185.6,23.49z"/>
	<path class="st0" d="M209.8,35.89l-10.7-17v17h-4.4v-24.9h4.8l10.6,16.8v-16.8h4.4v24.8h-4.7V35.89z"/>
	<path class="st0" d="M238.3,28.49c0,1.2-0.2,2.2-0.6,3c-0.4,0.8-0.9,1.6-1.5,2.2c-1,1-2.1,1.6-3.5,2c-1.4,0.4-2.8,0.6-4.4,0.6
		c-1.3,0-2.6-0.2-3.9-0.6c-1.3-0.4-2.5-1-3.5-2c-0.7-0.7-1.4-1.5-1.9-2.5s-0.7-2.1-0.7-3.3h4.6c0,0.6,0.1,1.2,0.4,1.7
		c0.2,0.5,0.6,1,0.9,1.3c0.5,0.5,1.2,0.9,1.9,1.1c0.8,0.2,1.5,0.3,2.2,0.3c0.9,0,1.7-0.1,2.5-0.3c0.8-0.2,1.4-0.5,1.9-1
		c0.3-0.3,0.5-0.6,0.7-1c0.2-0.3,0.3-0.8,0.3-1.4c0-0.9-0.3-1.6-0.9-2c-0.6-0.5-1.3-0.8-2-0.9c-0.8-0.2-1.8-0.3-2.8-0.4
		s-1.9-0.2-2.7-0.3c-0.9-0.1-1.7-0.4-2.4-0.7c-0.8-0.4-1.4-0.8-2-1.4c-0.6-0.6-1-1.3-1.4-2.1c-0.3-0.8-0.5-1.7-0.5-2.7
		s0.2-1.9,0.6-2.7c0.4-0.8,0.9-1.6,1.6-2.2c0.8-0.8,1.9-1.5,3.2-1.9c1.3-0.5,2.7-0.7,4.1-0.7c1.3,0,2.6,0.2,3.8,0.6
		c1.2,0.4,2.3,1,3.1,1.8c0.7,0.7,1.3,1.5,1.8,2.4c0.5,0.9,0.7,1.9,0.7,2.9h-4.6c0-0.4-0.1-0.9-0.3-1.3c-0.2-0.4-0.4-0.8-0.8-1.1
		c-0.4-0.4-1-0.7-1.7-1c-0.7-0.2-1.4-0.4-2.1-0.4c-0.7,0-1.4,0.1-2.2,0.3c-0.7,0.2-1.4,0.5-1.9,1.1c-0.3,0.3-0.5,0.6-0.6,0.9
		c-0.2,0.3-0.2,0.7-0.2,1.2c0,0.8,0.2,1.4,0.7,1.9c0.5,0.4,1.1,0.7,1.8,0.8c0.8,0.1,1.7,0.2,2.7,0.3s1.9,0.2,2.7,0.3
		c0.9,0.1,1.8,0.4,2.6,0.8s1.6,0.8,2.2,1.4c0.6,0.6,1.1,1.3,1.5,2.2C238.1,26.49,238.3,27.39,238.3,28.49z"/>
	<path class="st0" d="M241.6,26.99v-3.9h12v3.9H241.6z"/>
	<path class="st0" d="M278.1,23.39c0,0.9,0,1.7-0.1,2.6s-0.2,1.7-0.4,2.6c-0.2,0.8-0.5,1.7-0.9,2.4c-0.4,0.8-0.9,1.5-1.5,2.2
		c-0.8,0.9-1.8,1.5-3,2s-2.5,0.7-3.9,0.7h-9.7v-24.9h9.7c1.4,0,2.7,0.2,3.9,0.7c1.2,0.5,2.2,1.1,3,2c0.6,0.7,1.1,1.4,1.5,2.1
		c0.4,0.7,0.7,1.6,0.9,2.4c0.2,0.8,0.3,1.7,0.4,2.6S278.1,22.59,278.1,23.39z M273.5,23.39c0-0.6,0-1.2,0-1.8s-0.1-1.3-0.2-1.9
		s-0.3-1.2-0.5-1.8s-0.6-1.1-1-1.5c-0.4-0.4-0.9-0.8-1.5-1c-0.6-0.3-1.3-0.4-2-0.4h-5.1v16.7h5.1c0.7,0,1.4-0.1,2-0.4s1.1-0.6,1.5-1
		s0.8-0.9,1-1.5s0.4-1.1,0.5-1.8c0.1-0.6,0.2-1.2,0.2-1.9C273.5,24.59,273.5,23.99,273.5,23.39z"/>
	<path class="st0" d="M296.7,35.89l-4.1-9.4h-5.5v9.4h-4.5v-24.9h10.5c1.5,0,2.7,0.2,3.8,0.6c1.1,0.4,2,1,2.7,1.7s1.2,1.5,1.6,2.5
		c0.3,0.9,0.5,1.9,0.5,2.9c0,1.7-0.4,3.1-1.2,4.4c-0.8,1.2-1.9,2.1-3.3,2.6l4.5,10.1L296.7,35.89L296.7,35.89z M297.1,18.69
		c0-0.5-0.1-1-0.3-1.4c-0.2-0.5-0.5-0.9-0.8-1.2c-0.3-0.3-0.8-0.6-1.3-0.8s-1.1-0.3-1.7-0.3h-6v7.4h6c1.3,0,2.3-0.3,3-0.9
		C296.7,20.79,297.1,19.89,297.1,18.69z"/>
	<path class="st0" d="M324.7,23.49c0,1,0,2-0.1,2.9s-0.2,1.8-0.5,2.6c-0.2,0.8-0.6,1.6-1,2.4c-0.4,0.7-1,1.5-1.6,2.1
		c-1,1-2.1,1.7-3.3,2.1c-1.2,0.5-2.5,0.7-3.8,0.7s-2.6-0.2-3.8-0.7c-1.2-0.5-2.3-1.2-3.3-2.1c-0.7-0.7-1.2-1.4-1.6-2.1
		c-0.4-0.7-0.7-1.5-1-2.4c-0.2-0.8-0.4-1.7-0.5-2.6s-0.1-1.9-0.1-2.9s0-2,0.1-2.9s0.2-1.8,0.5-2.7s0.6-1.6,1-2.4
		c0.4-0.7,1-1.5,1.6-2.1c1-1,2.1-1.7,3.3-2.1c1.2-0.5,2.5-0.7,3.8-0.7s2.6,0.2,3.8,0.7c1.2,0.5,2.3,1.2,3.3,2.1
		c0.7,0.7,1.2,1.4,1.6,2.1s0.7,1.5,1,2.4c0.2,0.8,0.4,1.7,0.5,2.7C324.7,21.49,324.7,22.49,324.7,23.49z M320.1,23.49
		c0-0.6,0-1.2,0-1.8c0-0.7-0.1-1.3-0.2-1.9c-0.1-0.6-0.3-1.3-0.5-1.8c-0.2-0.6-0.6-1.1-1-1.5c-0.5-0.5-1.1-0.9-1.8-1.2
		c-0.7-0.3-1.4-0.4-2.1-0.4s-1.4,0.1-2.1,0.4s-1.3,0.7-1.8,1.2c-0.4,0.4-0.8,1-1,1.5c-0.2,0.6-0.4,1.2-0.5,1.8s-0.2,1.3-0.2,1.9
		c0,0.7,0,1.3,0,1.8s0,1.2,0,1.8c0,0.7,0.1,1.3,0.2,1.9s0.3,1.2,0.5,1.8c0.2,0.6,0.6,1.1,1,1.5c0.5,0.5,1.1,0.9,1.8,1.2
		c0.7,0.3,1.4,0.4,2.1,0.4s1.4-0.1,2.1-0.4s1.3-0.7,1.8-1.2c0.4-0.4,0.8-1,1-1.5c0.2-0.6,0.4-1.2,0.5-1.8c0.1-0.6,0.2-1.3,0.2-1.9
		S320.1,23.99,320.1,23.49z"/>
	<path class="st0" d="M329.1,35.89v-24.9h4.6v24.8h-4.6V35.89z"/>
	<path class="st0" d="M348.7,15.19v20.6h-4.5v-20.6h-7.4v-4.2H356v4.2H348.7z"/>
	<path class="st0" d="M355.3,35.89v-5.5h5.3v5.5H355.3z"/>
	<path class="st0" d="M383.6,27.89c-0.1,1-0.4,1.9-0.7,2.9s-0.9,1.8-1.6,2.5c-0.9,1-2,1.7-3.3,2.2c-1.2,0.5-2.5,0.8-3.9,0.8
		s-2.6-0.2-3.8-0.7c-1.2-0.4-2.3-1.1-3.2-2.1c-0.7-0.7-1.2-1.4-1.6-2.1s-0.7-1.5-0.9-2.4c-0.2-0.8-0.3-1.7-0.4-2.6s-0.1-1.9-0.1-2.9
		s0-2,0.1-2.9s0.2-1.8,0.4-2.7s0.5-1.6,0.9-2.4c0.4-0.7,1-1.5,1.6-2.1c1-1,2-1.7,3.2-2.1c1.2-0.5,2.5-0.7,3.8-0.7s2.6,0.2,3.9,0.7
		c1.2,0.5,2.3,1.2,3.3,2.2c0.7,0.7,1.3,1.6,1.6,2.5c0.4,0.9,0.6,1.9,0.7,2.9H379c0-0.5-0.2-1-0.4-1.4c-0.2-0.4-0.4-0.8-0.8-1.2
		c-0.4-0.5-0.9-0.9-1.6-1.2c-0.7-0.3-1.4-0.4-2.2-0.4c-0.7,0-1.4,0.1-2.1,0.4s-1.2,0.7-1.7,1.2c-0.4,0.4-0.7,1-1,1.5
		c-0.2,0.6-0.4,1.2-0.5,1.8s-0.2,1.3-0.2,1.9c0,0.7,0,1.3,0,1.8s0,1.2,0,1.8s0.1,1.3,0.2,1.9s0.3,1.3,0.5,1.8c0.2,0.6,0.6,1.1,1,1.5
		c0.5,0.5,1.1,0.9,1.7,1.2c0.7,0.3,1.4,0.4,2.1,0.4c0.8,0,1.5-0.1,2.2-0.4s1.2-0.7,1.6-1.2c0.7-0.8,1-1.7,1.1-2.7h4.7L383.6,27.89
		L383.6,27.89z"/>
	<path class="st0" d="M402.2,35.89v-10.9H392v10.8h-4.5v-24.8h4.5v9.7h10.2v-9.7h4.5v24.8h-4.5V35.89z"/>
</g>
<g>
	<g>
		<path class="st1" d="M253.5,47.797H245v5.3h7.6v1.9H245v7.2h-2v-16.3h10.6v1.9C253.6,47.797,253.5,47.797,253.5,47.797z"/>
		<path class="st1" d="M266,62.097c-0.4,0.2-0.8,0.3-1.3,0.3s-0.9-0.2-1.2-0.5c-0.3-0.3-0.5-0.8-0.5-1.3l0,0c-0.3,0.6-0.8,1-1.5,1.4
			c-0.7,0.3-1.4,0.5-2.2,0.5c-1.3,0-2.2-0.4-2.9-1.1c-0.7-0.7-1.1-1.6-1.1-2.5c0-0.6,0.1-1.1,0.3-1.6c0.2-0.5,0.7-1,1.3-1.4
			c0.7-0.4,1.5-0.6,2.5-0.7l3.5-0.2v-0.9c0-0.8-0.2-1.4-0.6-1.8c-0.4-0.4-1.1-0.6-1.9-0.6c-1,0-1.7,0.2-2.1,0.7
			c-0.4,0.4-0.6,0.9-0.6,1.4h-1.9c0-1,0.4-1.8,1-2.4c0.8-0.8,2-1.2,3.6-1.2c2.1,0,3.5,0.7,4.1,2.2c0.2,0.5,0.3,1.1,0.3,1.8v5.6
			c0,0.5,0.2,0.8,0.6,0.8l0.5-0.1v1.6H266z M262.9,57.297v-0.7l-3.1,0.2c-0.7,0-1.3,0.2-1.8,0.6c-0.5,0.3-0.8,0.8-0.8,1.5
			c0,0.6,0.2,1,0.6,1.4s1,0.6,1.7,0.6c1,0,1.8-0.3,2.4-0.9C262.6,59.297,262.9,58.397,262.9,57.297z"/>
		<path class="st1" d="M278.1,58.297c-0.1,1.2-0.5,2.1-1.4,2.9c-0.9,0.8-2,1.3-3.4,1.3c-1.8,0-3.3-0.7-4.3-2.2c-0.6-1-1-2.3-1-3.9
			s0.3-3,1-3.9c1-1.5,2.4-2.2,4.2-2.2c1.3,0,2.5,0.4,3.3,1.2s1.3,1.8,1.4,3h-2c-0.1-0.8-0.4-1.4-0.8-1.8c-0.5-0.5-1.1-0.7-1.9-0.7
			s-1.4,0.3-2,0.8c-0.8,0.7-1.2,1.9-1.2,3.7s0.4,3,1.2,3.7c0.6,0.5,1.3,0.8,2,0.8c0.8,0,1.5-0.3,2-0.8c0.4-0.5,0.7-1,0.8-1.7h2.1
			L278.1,58.297L278.1,58.297z"/>
		<path class="st1" d="M290.4,62.197h-1.7l-0.2-1.8c-0.3,0.6-0.8,1.1-1.4,1.5s-1.3,0.5-2,0.5c-1.3,0-2.3-0.4-3-1.1s-1-1.8-1-3.2
			v-7.6h2v7.4c0,0.9,0.2,1.6,0.6,2.1s1,0.7,1.9,0.7c0.7,0,1.4-0.3,1.9-0.9c0.6-0.7,1-1.7,1-3.2v-6h2L290.4,62.197L290.4,62.197z"/>
		<path class="st1" d="M298.5,62.197c-0.3,0.1-0.8,0.1-1.4,0.1c-1.6,0-2.4-1-2.4-2.9v-13.8h2v13.8c0,0.4,0.1,0.7,0.2,0.9
			c0.2,0.2,0.4,0.3,0.8,0.3h0.8V62.197z"/>
		<path class="st1" d="M307.4,62.097c-0.8,0.2-1.6,0.3-2.3,0.3c-1.1,0-2-0.3-2.5-0.9c-0.5-0.6-0.7-1.3-0.7-2.3v-7h-2.3v-1.7h2.3v-3
			l2-0.5v3.4h3.4v1.7h-3.4v6.7c0,0.6,0.1,1,0.4,1.2c0.2,0.3,0.6,0.4,1.2,0.4c0.2,0,0.5,0,0.9-0.1c0.3,0,0.6-0.1,0.8-0.1h0.3
			L307.4,62.097L307.4,62.097z"/>
		<path class="st1" d="M319.7,55.897v1.2h-8.3c0,1.2,0.4,2.2,1.1,2.9c0.6,0.6,1.3,0.8,2.1,0.8c1,0,1.7-0.3,2.2-0.8
			c0.3-0.3,0.6-0.7,0.7-1.3h1.9c-0.2,1.2-0.8,2.2-1.8,2.9c-0.9,0.6-1.9,0.9-3,0.9c-1.6,0-2.9-0.6-3.9-1.7c-1-1.1-1.4-2.6-1.4-4.3
			c0-1.5,0.3-2.7,0.9-3.7c0.4-0.7,1-1.3,1.8-1.8c0.8-0.4,1.6-0.7,2.6-0.7c1.4,0,2.6,0.5,3.5,1.5
			C319.2,52.897,319.7,54.297,319.7,55.897z M317.7,55.397c0-0.9-0.2-1.7-0.7-2.4s-1.3-1.1-2.3-1.1s-1.8,0.3-2.3,1
			c-0.6,0.7-0.8,1.5-0.9,2.4L317.7,55.397L317.7,55.397z M317.2,47.197l-4.3,2.3l-0.7-1.1l3.9-2.8L317.2,47.197z"/>
		<path class="st1" d="M337.6,62.197h-1.7l-0.1-1.5c-0.3,0.6-0.8,1-1.5,1.3s-1.3,0.5-2,0.5c-1.4,0-2.5-0.4-3.3-1.3
			c-1.1-1.2-1.7-2.8-1.7-4.8c0-2.2,0.6-3.8,1.8-5c0.8-0.8,1.9-1.2,3.2-1.2c0.7,0,1.3,0.1,2,0.4c0.7,0.3,1.1,0.7,1.4,1.2v-6.3h2
			L337.6,62.197L337.6,62.197z M335.8,56.397c0-1.7-0.4-3-1.3-3.7c-0.6-0.5-1.2-0.8-1.9-0.8c-1.2,0-2,0.4-2.5,1.3
			c-0.5,0.9-0.8,1.9-0.8,3.2s0.3,2.3,0.8,3.2s1.3,1.3,2.5,1.3c0.7,0,1.3-0.3,1.9-0.8C335.4,59.397,335.8,58.097,335.8,56.397z"/>
		<path class="st1" d="M351.3,55.897v1.2h-8.2c0,1.2,0.4,2.2,1.1,2.9c0.6,0.6,1.3,0.8,2.1,0.8c1,0,1.7-0.3,2.2-0.8
			c0.3-0.3,0.6-0.7,0.7-1.3h1.9c-0.2,1.2-0.8,2.2-1.8,2.9c-0.9,0.6-1.9,0.9-3,0.9c-1.6,0-2.9-0.6-3.9-1.7c-1-1.1-1.4-2.6-1.4-4.3
			c0-1.5,0.3-2.7,0.9-3.7c0.4-0.7,1-1.3,1.8-1.8c0.8-0.4,1.6-0.7,2.6-0.7c1.4,0,2.6,0.5,3.5,1.5
			C350.8,52.897,351.3,54.297,351.3,55.897z M349.3,55.397c0-0.9-0.2-1.7-0.7-2.4s-1.3-1.1-2.3-1.1s-1.8,0.3-2.3,1
			c-0.6,0.7-0.8,1.5-0.9,2.4L349.3,55.397L349.3,55.397z"/>
		<path class="st1" d="M369.3,62.197h-1.7l-0.2-1.5c-0.3,0.6-0.8,1-1.5,1.3s-1.3,0.5-2,0.5c-1.4,0-2.5-0.4-3.3-1.3
			c-1.1-1.2-1.7-2.8-1.7-4.8c0-2.2,0.6-3.8,1.8-5c0.8-0.8,1.9-1.2,3.2-1.2c0.7,0,1.3,0.1,2,0.4c0.7,0.3,1.1,0.7,1.4,1.2v-6.3h2
			V62.197z M367.4,56.397c0-1.7-0.4-3-1.3-3.7c-0.6-0.5-1.2-0.8-1.9-0.8c-1.2,0-2,0.4-2.5,1.3c-0.5,0.9-0.8,1.9-0.8,3.2
			s0.3,2.3,0.8,3.2s1.3,1.3,2.5,1.3c0.7,0,1.3-0.3,1.9-0.8C367,59.397,367.4,58.097,367.4,56.397z"/>
		<path class="st1" d="M379.8,52.497c-0.3-0.1-0.7-0.1-1.1-0.1c-0.8,0-1.6,0.3-2.2,0.9c-0.7,0.7-1.1,1.9-1.1,3.7v5.2h-1.9v-11.6h1.7
			l0.2,2c0.3-0.7,0.8-1.2,1.4-1.6c0.6-0.4,1.3-0.5,2.1-0.5c0.3,0,0.6,0,0.9,0.1V52.497z"/>
		<path class="st1" d="M391.9,56.397c0,2.1-0.6,3.7-1.7,4.8c-0.9,0.9-2.1,1.4-3.5,1.4s-2.6-0.5-3.5-1.4c-1.1-1.1-1.7-2.7-1.7-4.8
			s0.6-3.7,1.7-4.8c0.9-0.9,2.1-1.4,3.5-1.4s2.6,0.5,3.5,1.4C391.3,52.797,391.9,54.297,391.9,56.397z M389.9,56.397
			c0-1.7-0.4-2.9-1.1-3.6c-0.6-0.6-1.2-0.8-2.1-0.8c-0.8,0-1.5,0.3-2.1,0.8c-0.7,0.7-1.1,1.9-1.1,3.6s0.4,2.9,1.1,3.6
			c0.6,0.6,1.2,0.8,2.1,0.8c0.8,0,1.5-0.3,2.1-0.8C389.5,59.297,389.9,58.097,389.9,56.397z"/>
		<path class="st1" d="M397.4,47.897h-2.3v-2.3h2.3V47.897z M397.2,62.197h-2v-11.6h2V62.197z"/>
		<path class="st1" d="M407.5,62.097c-0.8,0.2-1.6,0.3-2.3,0.3c-1.2,0-2-0.3-2.5-0.9c-0.5-0.6-0.7-1.3-0.7-2.3v-7h-2.3v-1.7h2.3v-3
			l2-0.5v3.4h3.5v1.7H404v6.7c0,0.6,0.1,1,0.4,1.2c0.2,0.3,0.6,0.4,1.2,0.4c0.2,0,0.5,0,0.9-0.1c0.3,0,0.6-0.1,0.8-0.1h0.3
			L407.5,62.097L407.5,62.097z"/>
	</g>
</g>
<g>
	<path class="st1" d="M470.813,36.358h8.089V10.854h-8.089V36.358z M460.187,10.949c-2.951,0-6.281,1.572-7.755,4.093h-0.097
		l0.006-3.27c0,0.005,0,0.01,0,0.016c0-0.009,0-0.015,0-0.024c0-0.032,0-0.067,0-0.1c0-0.254,0-0.514,0-0.81h-8.089v14.037
		c0,4.377-2.666,5.522-4.425,5.522c-2.571,0-3.996-1.144-3.996-4.426V10.854h-8.089v15.653c0,6.471,2.045,10.563,9.134,10.563
		c2.856,0,5.996-1.569,7.518-4.092h0.095v3.38h8.085V22.893c0-2.713,1.332-5.28,4.377-5.28c4.423,0,4.043,3.425,4.043,6.801v11.945
		h8.089V20.513C469.085,16.945,468.419,10.949,460.187,10.949z M452.342,11.788c-0.002,2.579-0.006,3.254-0.006,3.254
		S452.342,15.035,452.342,11.788z M470.807,1v8.094h8.095V1H470.807z"/>
	<path class="st2" d="M503.869,21.464h10.042c-0.144-2.758-2.095-5.042-4.809-5.042C506.249,16.421,504.346,18.467,503.869,21.464z
		 M522,24.099v1.809l-0.002,0.075h-18.128c0.142,3.382,2.095,5.618,5.52,5.618c1.95,0,3.854-0.904,4.614-2.715h7.567
		c-1.474,5.711-6.757,8.184-12.277,8.184c-5.623,0-9.99-2.371-12.104-6.631v5.919h-8.091V24.413c0-3.377,0.379-6.801-4.046-6.801
		c-2.744,0-4.097,2.083-4.339,4.479v-7.344c1.554-2.349,4.74-3.798,7.576-3.798c6.636,0,8.356,3.897,8.77,7.281
		c2.153-4.441,6.772-7.281,12.042-7.281C517.278,10.949,521.679,16.634,522,24.099z"/>
	<path class="st1" d="M451.803,49.553c0.284-0.106,0.511-0.286,0.683-0.538c0.17-0.252,0.254-0.552,0.254-0.898
		c0-0.207-0.035-0.405-0.104-0.595c-0.069-0.192-0.179-0.36-0.325-0.507c-0.147-0.147-0.332-0.263-0.554-0.353
		c-0.224-0.088-0.487-0.134-0.791-0.134h-2.157v5.116h0.94v-1.933h1.132l0.851,1.933h1.009L451.803,49.553z M451.594,48.674
		c-0.144,0.129-0.347,0.194-0.612,0.194h-1.241v-1.522h1.226c0.129,0,0.248,0.019,0.354,0.06c0.106,0.041,0.194,0.097,0.267,0.169
		c0.071,0.071,0.127,0.154,0.166,0.248c0.039,0.093,0.058,0.19,0.058,0.29C451.812,48.358,451.739,48.544,451.594,48.674z
		 M428.519,51.586c0.25,0.101,0.541,0.152,0.873,0.152c0.332,0,0.623-0.051,0.873-0.152c0.25-0.1,0.459-0.241,0.627-0.421
		c0.168-0.18,0.295-0.397,0.379-0.65c0.084-0.252,0.125-0.53,0.125-0.833v-3.153h-0.929v3.139c0,0.365-0.088,0.662-0.261,0.887
		c-0.172,0.226-0.444,0.339-0.815,0.339c-0.371,0-0.642-0.113-0.815-0.339c-0.175-0.225-0.261-0.522-0.261-0.887v-3.139h-0.931
		v3.153c0,0.303,0.043,0.581,0.127,0.833c0.084,0.253,0.211,0.47,0.379,0.65C428.06,51.345,428.269,51.486,428.519,51.586z
		 M436.541,51.645v-5.116h-0.916v3.464l-2.188-3.464h-0.987v5.116h0.916v-3.513l2.214,3.513H436.541z M438.684,46.529h-0.946v5.116
		h0.946V46.529z M442.001,51.645l1.681-5.116h-0.938l-1.233,3.903l-1.241-3.903h-0.989l1.696,5.116H442.001z M447.924,50.801h-2.714
		v-1.4h2.388v-0.844h-2.388v-1.183h2.714v-0.845h-3.642v5.116h3.642V50.801z M466.968,45.324l-0.405-0.655l-1.328,0.996l0.289,0.468
		L466.968,45.324z M459.069,46.529h-0.946v5.116h0.946V46.529z M478.928,47.374v-0.845h-3.645v5.116h3.645v-0.844h-2.713v-1.4h2.388
		v-0.844h-2.388v-1.183H478.928z M467.955,50.801h-2.712v-1.4h2.386v-0.844h-2.386v-1.183h2.712v-0.845h-3.643v5.116h3.643V50.801z
		 M474.275,48.016c-0.043-0.173-0.106-0.339-0.183-0.498c-0.08-0.16-0.185-0.306-0.315-0.44c-0.168-0.179-0.377-0.315-0.625-0.407
		c-0.248-0.095-0.517-0.142-0.811-0.142h-1.992v5.116h1.992c0.293,0,0.563-0.047,0.811-0.141c0.248-0.094,0.457-0.23,0.625-0.407
		c0.129-0.135,0.235-0.282,0.315-0.443c0.078-0.162,0.14-0.329,0.183-0.502c0.043-0.172,0.071-0.349,0.082-0.53
		c0.013-0.18,0.019-0.359,0.019-0.537c0-0.178-0.006-0.358-0.019-0.538C474.346,48.366,474.318,48.19,474.275,48.016z
		 M473.423,49.454c-0.004,0.131-0.019,0.261-0.043,0.388c-0.024,0.127-0.06,0.248-0.108,0.363c-0.05,0.114-0.119,0.218-0.209,0.308
		c-0.088,0.086-0.192,0.156-0.315,0.209c-0.123,0.052-0.259,0.079-0.407,0.079h-1.06v-3.427h1.06c0.149,0,0.285,0.026,0.407,0.08
		c0.123,0.053,0.226,0.122,0.315,0.208c0.09,0.09,0.159,0.194,0.209,0.309c0.047,0.114,0.084,0.235,0.108,0.362
		c0.024,0.127,0.039,0.255,0.043,0.385c0.004,0.129,0.006,0.251,0.006,0.366C473.43,49.198,473.428,49.322,473.423,49.454z
		 M461.226,51.645h0.929v-4.249h1.515v-0.866h-3.959v0.866h1.515V51.645z M456.873,49.095c-0.127-0.123-0.278-0.221-0.448-0.296
		c-0.17-0.074-0.351-0.126-0.543-0.155c-0.17-0.024-0.356-0.045-0.56-0.065c-0.205-0.019-0.388-0.041-0.552-0.065
		c-0.153-0.024-0.278-0.081-0.375-0.169c-0.097-0.089-0.144-0.218-0.144-0.387c0-0.096,0.015-0.178,0.047-0.245
		c0.03-0.068,0.073-0.13,0.125-0.187c0.106-0.111,0.235-0.186,0.388-0.225c0.151-0.037,0.297-0.056,0.442-0.056
		c0.14,0,0.284,0.024,0.433,0.071c0.149,0.047,0.265,0.116,0.347,0.203c0.062,0.068,0.114,0.145,0.155,0.235
		c0.041,0.088,0.063,0.179,0.069,0.27h0.951c-0.004-0.217-0.054-0.416-0.147-0.599c-0.095-0.182-0.218-0.346-0.373-0.49
		c-0.172-0.164-0.386-0.289-0.638-0.373c-0.252-0.084-0.515-0.125-0.789-0.125c-0.304,0-0.588,0.047-0.851,0.144
		c-0.265,0.095-0.481,0.228-0.649,0.396c-0.136,0.134-0.243,0.287-0.325,0.455c-0.082,0.168-0.123,0.353-0.123,0.555
		c0,0.212,0.035,0.401,0.106,0.567c0.069,0.166,0.162,0.307,0.28,0.426c0.119,0.117,0.254,0.212,0.412,0.284
		c0.155,0.072,0.323,0.123,0.5,0.152c0.17,0.028,0.358,0.05,0.565,0.065c0.205,0.014,0.397,0.039,0.569,0.072
		c0.159,0.029,0.3,0.089,0.422,0.183c0.123,0.095,0.183,0.235,0.183,0.423c0,0.125-0.019,0.223-0.058,0.292
		c-0.039,0.07-0.086,0.136-0.144,0.198c-0.095,0.101-0.222,0.172-0.382,0.213c-0.159,0.041-0.328,0.061-0.504,0.061
		c-0.151,0-0.302-0.018-0.459-0.055c-0.155-0.036-0.289-0.109-0.401-0.22c-0.075-0.076-0.14-0.169-0.19-0.277
		c-0.052-0.109-0.075-0.225-0.075-0.35h-0.953c0,0.245,0.05,0.47,0.151,0.675c0.101,0.204,0.228,0.376,0.381,0.515
		c0.213,0.193,0.453,0.329,0.718,0.408c0.267,0.079,0.539,0.119,0.813,0.119c0.317,0,0.617-0.042,0.899-0.126
		c0.28-0.084,0.519-0.225,0.718-0.422c0.125-0.125,0.226-0.274,0.306-0.447c0.08-0.172,0.119-0.379,0.119-0.62
		c0-0.217-0.037-0.412-0.112-0.585C457.101,49.365,457,49.218,456.873,49.095z M431.624,59.087l-2.758-4.371h-1.248v6.455h1.156
		v-4.433l2.795,4.433h1.21v-6.455h-1.156V59.087z M459.065,53.929l0.362,0.516l1.311-0.761l1.307,0.761l0.369-0.516l-1.676-1.255
		L459.065,53.929z M460.075,54.895l-2.205,6.276h1.183l0.419-1.238h2.567l0.419,1.238h1.229l-2.204-6.276H460.075z M459.837,58.867
		l0.919-2.721l0.919,2.721H459.837z M468.987,61.171h4.597v-1.065h-3.423v-1.767h3.013v-1.065h-3.013v-1.493h3.423v-1.066h-4.597
		V61.171z M463.142,55.809h1.912v5.362h1.175v-5.362h1.912v-1.093h-4.998V55.809z M475.915,54.716h-1.175v6.455h4.169v-1.11h-2.995
		V54.716z M447.187,56.967c0.028-0.167,0.072-0.325,0.133-0.477c0.06-0.151,0.145-0.285,0.255-0.399
		c0.127-0.14,0.277-0.246,0.45-0.319c0.172-0.072,0.353-0.109,0.541-0.109c0.2,0,0.387,0.033,0.56,0.1
		c0.172,0.067,0.31,0.167,0.414,0.299c0.085,0.104,0.152,0.209,0.2,0.315c0.049,0.107,0.079,0.23,0.092,0.369h1.202
		c-0.031-0.254-0.095-0.503-0.192-0.746c-0.097-0.244-0.239-0.461-0.428-0.655c-0.243-0.25-0.525-0.435-0.846-0.56
		c-0.322-0.125-0.656-0.187-1.002-0.187c-0.346,0-0.675,0.06-0.987,0.179c-0.313,0.118-0.594,0.302-0.843,0.55
		c-0.176,0.177-0.317,0.362-0.423,0.556c-0.106,0.194-0.187,0.401-0.241,0.619c-0.055,0.219-0.092,0.449-0.11,0.692
		c-0.018,0.244-0.027,0.496-0.027,0.756c0,0.267,0.009,0.519,0.027,0.76c0.018,0.24,0.055,0.469,0.11,0.687
		c0.054,0.22,0.135,0.426,0.241,0.62c0.106,0.195,0.247,0.379,0.423,0.555c0.249,0.25,0.53,0.431,0.843,0.547
		c0.313,0.114,0.641,0.172,0.987,0.172c0.346,0,0.68-0.066,1.002-0.196c0.321-0.13,0.603-0.32,0.846-0.569
		c0.189-0.194,0.331-0.414,0.428-0.659c0.097-0.246,0.161-0.496,0.192-0.751h-1.202c-0.025,0.264-0.122,0.499-0.292,0.704
		c-0.103,0.134-0.241,0.234-0.414,0.303c-0.173,0.07-0.36,0.105-0.56,0.105c-0.188,0-0.369-0.037-0.541-0.11
		c-0.173-0.072-0.323-0.179-0.45-0.318c-0.11-0.115-0.195-0.249-0.255-0.4s-0.104-0.31-0.133-0.476
		c-0.027-0.167-0.043-0.335-0.05-0.504c-0.006-0.17-0.009-0.328-0.009-0.473c0-0.145,0.002-0.303,0.009-0.472
		C447.143,57.302,447.16,57.134,447.187,56.967z M455.904,57.238h-2.649v-2.522h-1.175v6.455h1.175v-2.813h2.649v2.813h1.175v-6.455
		h-1.175V57.238z M443.787,58.678c0,0.461-0.109,0.834-0.328,1.119c-0.218,0.285-0.561,0.429-1.028,0.429
		c-0.468,0-0.81-0.143-1.029-0.429c-0.219-0.285-0.328-0.657-0.328-1.119v-3.962h-1.175v3.979c0,0.383,0.053,0.733,0.16,1.052
		c0.107,0.319,0.265,0.592,0.478,0.819c0.212,0.228,0.476,0.405,0.792,0.532c0.315,0.127,0.682,0.192,1.101,0.192
		c0.418,0,0.786-0.065,1.101-0.192c0.316-0.127,0.58-0.304,0.792-0.532c0.212-0.227,0.372-0.5,0.477-0.819
		c0.107-0.319,0.16-0.669,0.16-1.052v-3.979h-1.175V58.678z M434.328,61.171h4.597v-1.065h-3.423v-1.767h3.013v-1.065h-3.013v-1.493
		h3.423v-1.066h-4.597V61.171z"/>
</g>
</svg>
