<?xml version="1.0" encoding="utf-8"?>
<!-- Generator: Adobe Illustrator 19.2.1, SVG Export Plug-In . SVG Version: 6.00 Build 0)  -->
<svg version="1.1"
	 id="svg2" xmlns:cc="http://creativecommons.org/ns#" xmlns:dc="http://purl.org/dc/elements/1.1/" xmlns:inkscape="http://www.inkscape.org/namespaces/inkscape" xmlns:rdf="http://www.w3.org/1999/02/22-rdf-syntax-ns#" xmlns:sodipodi="http://sodipodi.sourceforge.net/DTD/sodipodi-0.dtd" xmlns:svg="http://www.w3.org/2000/svg"
	 xmlns="http://www.w3.org/2000/svg" xmlns:xlink="http://www.w3.org/1999/xlink" x="0px" y="0px" viewBox="0 0 100 100"
	 style="enable-background:new 0 0 100 100;" xml:space="preserve">
<style type="text/css">
	.st0{fill:#B01D22;}
</style>
<g id="layer3" transform="translate(0,-99.999988)">
	<path id="rect4208" class="st0" d="M20,100c-11.1,0-20,8.9-20,20v60c0,11.1,8.9,20,20,20h60c11.1,0,20-8.9,20-20v-60
		c0-11.1-8.9-20-20-20H20z M50,109.9c3.8,0,6.8,2.2,6.8,4.8c0,0.3,0,0.6-0.1,0.8c9.2,2.9,15.9,11.5,15.9,21.5v0
		c0.1,7.6,1,14.1,2.2,19s3,8.2,3.7,9c0.7,0.7,2.2,1.6,4,3.3c1.7,1.6,3.4,4.5,3.2,8l-0.2,3.3l-67.7,0.1l-3.3,0l-0.2-3.3
		c-0.2-3.5,1.5-6.3,3.2-8s3.3-2.6,4-3.3c0.7-0.8,2.5-4.1,3.7-9c1.2-4.9,2.1-11.4,2.2-19c0-10.1,6.7-18.7,15.9-21.5
		c-0.1-0.3-0.1-0.6-0.1-0.9C43.2,112.1,46.2,109.9,50,109.9C50,109.9,50,109.9,50,109.9z M50,121.6c-8.7,0-15.6,7-15.7,15.6v0v0
		c-0.1,8.2-1.1,15.1-2.4,20.7c-1.4,5.5-2.9,9.5-5.4,12.1c-1.3,1.4-2.4,2.1-3.3,2.8l53.6-0.1c-0.9-0.7-2-1.4-3.3-2.8
		c-2.5-2.6-4.1-6.6-5.4-12.1c-1.4-5.5-2.3-12.5-2.4-20.6v0v0C65.7,128.5,58.7,121.6,50,121.6z M43.7,181.4h12.7
		c0.1,0.5,0.1,1,0.1,1.4c0,4-2.9,7.2-6.5,7.2c0,0,0,0,0,0c-3.6,0-6.5-3.2-6.5-7.2C43.5,182.4,43.6,181.9,43.7,181.4z"/>
</g>
</svg>
