<?xml version="1.0" encoding="utf-8"?>
<!-- Generator: Adobe Illustrator 21.1.0, SVG Export Plug-In . SVG Version: 6.00 Build 0)  -->
<svg version="1.1" xmlns="http://www.w3.org/2000/svg" xmlns:xlink="http://www.w3.org/1999/xlink" x="0px" y="0px"
	 viewBox="0 0 566.9 492.9" style="enable-background:new 0 0 566.9 492.9;" xml:space="preserve">
<style type="text/css">
	.st0{display:none;}
	.st1{display:inline;}
	.st2{fill:#9D9D9C;}
	.st3{fill:#B2B2B2;}
	.st4{fill:#C6C6C6;}
	.st5{display:inline;fill:#9D9D9C;}
	.st6{display:inline;fill:#AFAFAF;}
	.st7{display:inline;fill:#B2B2B2;}
	.st8{display:inline;fill:#C6C6C6;}
	.st9{display:inline;fill:none;stroke:#878787;stroke-miterlimit:10;}
	.st10{fill:#FFFFFF;}
</style>
<g id="Calque_1">
	<g id="Calque_5" class="st0">
		<g id="imageandtext" class="st1">
			<rect y="100.1" class="st2" width="567.3" height="170.1"/>
			<rect y="335.9" class="st3" width="567.3" height="15"/>
			<rect y="364.9" class="st4" width="567.3" height="15"/>
			<rect y="306.5" class="st4" width="567.3" height="15"/>
			<rect y="394.2" class="st3" width="567.3" height="15"/>
			<rect y="452.6" class="st3" width="567.3" height="15"/>
			<rect y="423.6" class="st4" width="567.3" height="15"/>
		</g>
	</g>
	<g id="Calque_1_1_" class="st0">
		<rect x="439.9" y="100.3" class="st5" width="127" height="94.6"/>
		<rect x="439.9" y="217.9" class="st5" width="127" height="94.6"/>
		<rect y="99.9" class="st6" width="407.5" height="46.8"/>
		<rect y="194.1" class="st7" width="407.5" height="15"/>
		<rect y="168.3" class="st8" width="407.5" height="15"/>
		<rect y="246.1" class="st7" width="407.5" height="15"/>
		<rect y="220.1" class="st8" width="407.5" height="15"/>
		<rect y="298.1" class="st7" width="407.5" height="15"/>
		<rect y="272.1" class="st8" width="407.5" height="15"/>
	</g>
	<g id="Calque_2" class="st0">
		<rect x="6.7" y="132.9" class="st9" width="166.3" height="149.1"/>
		<rect x="394" y="132.9" class="st9" width="166.3" height="149.1"/>
		<rect x="200.4" y="132.9" class="st5" width="166.3" height="149.1"/>
	</g>
	<g id="Calque_3" class="st0">
		<g id="imagelefttext" class="st1">
			<rect y="100.6" class="st2" width="138.1" height="131.1"/>
			<rect x="159.4" y="129.6" class="st3" width="407.5" height="15"/>
			<rect x="159.4" y="158.6" class="st4" width="407.5" height="15"/>
			<rect x="159.4" y="100.3" class="st4" width="407.5" height="15"/>
			<rect x="159.4" y="188" class="st3" width="407.5" height="15"/>
			<rect x="159.4" y="246.3" class="st3" width="407.5" height="15"/>
			<rect x="159.4" y="275.7" class="st4" width="407.5" height="15"/>
			<rect x="159.4" y="217.3" class="st4" width="407.5" height="15"/>
			<rect x="159.4" y="305" class="st3" width="407.5" height="15"/>
		</g>
	</g>
	<rect x="428.9" y="99.9" class="st2" width="138.1" height="131.1"/>
	<rect y="128.9" class="st3" width="407.5" height="15"/>
	<rect y="158.3" class="st4" width="407.5" height="15"/>
	<rect y="99.9" class="st4" width="407.5" height="15"/>
	<rect y="187.6" class="st3" width="407.5" height="15"/>
	<rect y="216.6" class="st4" width="407.5" height="15"/>
	<g id="Calque_6">
	</g>
</g>
<g id="Calque_2_1_">
	<polygon class="st10" points="524.3,118.3 472.6,118.3 446.8,165.3 472.6,212.3 524.3,212.3 550.2,165.3 	"/>
</g>
</svg>
