<?xml version="1.0" encoding="utf-8"?>
<!-- Generator: Adobe Illustrator 18.1.1, SVG Export Plug-In . SVG Version: 6.00 Build 0)  -->
<!DOCTYPE svg PUBLIC "-//W3C//DTD SVG 1.1//EN" "http://www.w3.org/Graphics/SVG/1.1/DTD/svg11.dtd">
<svg version="1.1" id="Calque_1" xmlns="http://www.w3.org/2000/svg" xmlns:xlink="http://www.w3.org/1999/xlink" x="0px" y="0px"
	 viewBox="0 0 307 180" enable-background="new 0 0 307 180" xml:space="preserve">
<path fill="#E40043" d="M254.5,21.2v9.1c8,0,11.9,2.6,11.9,7.9l0.5,11.4v68.7l-65.8-97.1h-25.6v0h-49.4V29c8,0,12,2.2,12,6.7
	l0.4,9.7v87.8c0,9.3-0.9,15.4-2.8,18.5c-1.9,3.1-5.6,4.6-11.2,4.6c-1.9,0-4.3-0.4-6.6-1.3l0-0.1c-4.9-1.5-9.8-8.5-14.1-19.1L86,91.5
	c14.6-7.2,21.9-20.3,21.9-39.4c0-23.6-12-35.4-35.9-35.4l-7.3,0.2l-6.9,0.3l-5.2,0.1H14v9.3c8,0,12,2.7,12,8.1l0.4,11.7v87.4
	L26,145.4c0,5.5-4,8.2-12,8.2v9.3h49.2v-9.3c-5-0.5-8-1.2-8.8-2.2c-0.8-0.9-1.3-2.9-1.3-6l-0.4-11.6V96.5h8.4l26.6,66.1h48.7
	c8.8-1.1,15.3-3.6,19.5-7.5c6-5.5,8.9-15.2,8.9-29.1V45.5l0.5-9.7c0-4.1,3.4-6.4,10.2-6.7v0c6.1,0,9.7,2.4,10.8,4.7
	c1.1,2.3,1.6,7.6,1.6,15.9V135c0,8.3-0.5,13.6-1.6,15.9c-1.1,2.3-4.7,3.5-10.8,3.5v9.1h38v-9.1c-8,0-12-2.7-12-8l-0.4-11.3V67.5
	l65.8,97.1h13.2V49.6l0.5-11.4c0-5.3,4-7.9,11.9-7.9v-9.1H254.5z M56.8,87.2h-4.2V26.6h7c14.7,0,22,9.2,22,27.5
	C81.7,76.2,73.4,87.2,56.8,87.2z"/>
</svg>
