<?xml version="1.0" encoding="utf-8"?>
<!-- Generator: Adobe Illustrator 23.0.1, SVG Export Plug-In . SVG Version: 6.00 Build 0)  -->
<svg version="1.1" id="Calque_1" xmlns="http://www.w3.org/2000/svg" xmlns:xlink="http://www.w3.org/1999/xlink" x="0px" y="0px"
	 viewBox="0 0 111.24 71.71" style="enable-background:new 0 0 111.24 71.71;" xml:space="preserve">
<style type="text/css">
	.st0{fill:#686868;}
	.st1{fill:#A6A6A6;}
</style>
<path class="st0" d="M51.46,41.5h8.88V13.51h-8.88V41.5z M39.8,13.61c-3.24,0-6.89,1.73-8.51,4.49h-0.11l0.01-3.59
	c0,0.01,0,0.01,0,0.02c0-0.01,0-0.02,0-0.03c0-0.04,0-0.07,0-0.11c0-0.28,0-0.56,0-0.89h-8.88v15.4c0,4.8-2.93,6.06-4.86,6.06
	c-2.82,0-4.39-1.26-4.39-4.86V13.51H4.19v17.18c0,7.1,2.24,11.59,10.02,11.59c3.13,0,6.58-1.72,8.25-4.49h0.1v3.71h8.87V26.72
	c0-2.98,1.46-5.8,4.8-5.8c4.85,0,4.44,3.76,4.44,7.46V41.5h8.88V24.11C49.56,20.19,48.83,13.61,39.8,13.61z M31.18,14.53
	c0,2.83-0.01,3.57-0.01,3.57S31.18,18.09,31.18,14.53z M51.45,2.69v8.88h8.88V2.69H51.45z"/>
<path class="st1" d="M87.73,25.15h11.02c-0.16-3.03-2.3-5.53-5.28-5.53C90.35,19.62,88.26,21.86,87.73,25.15z M107.63,28.04v1.99
	l0,0.08h-19.9c0.16,3.71,2.3,6.17,6.06,6.17c2.14,0,4.23-0.99,5.06-2.98h8.3c-1.62,6.27-7.42,8.98-13.47,8.98
	c-6.17,0-10.96-2.6-13.28-7.28v6.5h-8.88V28.39c0-3.71,0.42-7.46-4.44-7.46c-3.01,0-4.5,2.29-4.76,4.92v-8.06
	c1.71-2.58,5.2-4.17,8.31-4.17c7.28,0,9.17,4.28,9.63,7.99c2.36-4.87,7.43-7.99,13.22-7.99C102.45,13.61,107.28,19.85,107.63,28.04z
	"/>
<path class="st0" d="M30.59,55.98c0.31-0.12,0.56-0.31,0.75-0.59c0.19-0.28,0.28-0.61,0.28-0.99c0-0.23-0.04-0.44-0.11-0.65
	c-0.08-0.21-0.2-0.4-0.36-0.56c-0.16-0.16-0.36-0.29-0.61-0.39c-0.25-0.1-0.53-0.15-0.87-0.15h-2.37v5.61h1.03v-2.12h1.24l0.93,2.12
	h1.11L30.59,55.98z M30.36,55.01c-0.16,0.14-0.38,0.21-0.67,0.21h-1.36v-1.67h1.35c0.14,0,0.27,0.02,0.39,0.07
	c0.12,0.04,0.21,0.11,0.29,0.19c0.08,0.08,0.14,0.17,0.18,0.27c0.04,0.1,0.06,0.21,0.06,0.32C30.6,54.66,30.52,54.87,30.36,55.01z
	 M5.04,58.21c0.27,0.11,0.59,0.17,0.96,0.17c0.36,0,0.68-0.06,0.96-0.17c0.27-0.11,0.5-0.26,0.69-0.46c0.18-0.2,0.32-0.44,0.42-0.71
	c0.09-0.28,0.14-0.58,0.14-0.91v-3.46H7.18v3.45c0,0.4-0.1,0.73-0.29,0.97C6.7,57.32,6.4,57.45,6,57.45c-0.41,0-0.7-0.12-0.89-0.37
	c-0.19-0.25-0.29-0.57-0.29-0.97v-3.45H3.8v3.46c0,0.33,0.05,0.64,0.14,0.91c0.09,0.28,0.23,0.52,0.42,0.71
	C4.54,57.94,4.77,58.1,5.04,58.21z M13.84,58.27v-5.61h-1.01v3.8l-2.4-3.8H9.35v5.61h1.01v-3.86l2.43,3.86H13.84z M16.2,52.66h-1.04
	v5.61h1.04V52.66z M19.84,58.27l1.85-5.61h-1.03l-1.35,4.28l-1.36-4.28h-1.09l1.86,5.61H19.84z M26.34,57.35h-2.98v-1.54h2.62v-0.93
	h-2.62v-1.3h2.98v-0.93h-4v5.61h4V57.35z M47.24,51.34l-0.44-0.72l-1.46,1.09l0.32,0.51L47.24,51.34z M38.57,52.66h-1.04v5.61h1.04
	V52.66z M60.36,53.58v-0.93h-4v5.61h4v-0.93h-2.98v-1.54h2.62v-0.93h-2.62v-1.3H60.36z M48.32,57.35h-2.98v-1.54h2.62v-0.93h-2.62
	v-1.3h2.98v-0.93h-4v5.61h4V57.35z M55.26,54.29c-0.05-0.19-0.12-0.37-0.2-0.55c-0.09-0.18-0.2-0.34-0.35-0.48
	c-0.18-0.2-0.41-0.35-0.69-0.45c-0.27-0.1-0.57-0.16-0.89-0.16h-2.19v5.61h2.19c0.32,0,0.62-0.05,0.89-0.15
	c0.27-0.1,0.5-0.25,0.69-0.45c0.14-0.15,0.26-0.31,0.35-0.49c0.09-0.18,0.15-0.36,0.2-0.55c0.05-0.19,0.08-0.38,0.09-0.58
	c0.01-0.2,0.02-0.39,0.02-0.59c0-0.2-0.01-0.39-0.02-0.59C55.33,54.67,55.3,54.48,55.26,54.29z M54.32,55.87
	c0,0.14-0.02,0.29-0.05,0.43c-0.03,0.14-0.07,0.27-0.12,0.4c-0.05,0.13-0.13,0.24-0.23,0.34c-0.1,0.09-0.21,0.17-0.35,0.23
	c-0.13,0.06-0.28,0.09-0.45,0.09h-1.16v-3.76h1.16c0.16,0,0.31,0.03,0.45,0.09c0.13,0.06,0.25,0.13,0.35,0.23
	c0.1,0.1,0.18,0.21,0.23,0.34c0.05,0.13,0.09,0.26,0.12,0.4c0.03,0.14,0.04,0.28,0.05,0.42s0.01,0.28,0.01,0.4
	C54.33,55.59,54.33,55.72,54.32,55.87z M40.94,58.27h1.02v-4.66h1.66v-0.95h-4.35v0.95h1.66V58.27z M36.16,55.47
	c-0.14-0.13-0.31-0.24-0.49-0.33c-0.19-0.08-0.39-0.14-0.6-0.17c-0.19-0.03-0.39-0.05-0.61-0.07c-0.22-0.02-0.43-0.04-0.61-0.07
	c-0.17-0.03-0.31-0.09-0.41-0.19c-0.11-0.1-0.16-0.24-0.16-0.42c0-0.11,0.02-0.2,0.05-0.27c0.03-0.07,0.08-0.14,0.14-0.21
	c0.12-0.12,0.26-0.2,0.43-0.25c0.17-0.04,0.33-0.06,0.48-0.06c0.15,0,0.31,0.03,0.48,0.08c0.16,0.05,0.29,0.13,0.38,0.22
	c0.07,0.07,0.13,0.16,0.17,0.26c0.05,0.1,0.07,0.2,0.08,0.3h1.04c0-0.24-0.06-0.46-0.16-0.66c-0.1-0.2-0.24-0.38-0.41-0.54
	c-0.19-0.18-0.42-0.32-0.7-0.41c-0.28-0.09-0.57-0.14-0.87-0.14c-0.33,0-0.65,0.05-0.93,0.16c-0.29,0.1-0.53,0.25-0.71,0.44
	c-0.15,0.15-0.27,0.31-0.36,0.5c-0.09,0.18-0.13,0.39-0.13,0.61c0,0.23,0.04,0.44,0.12,0.62c0.08,0.18,0.18,0.34,0.31,0.47
	c0.13,0.13,0.28,0.23,0.45,0.31c0.17,0.08,0.35,0.13,0.55,0.17c0.19,0.03,0.39,0.05,0.62,0.07c0.22,0.02,0.44,0.04,0.62,0.08
	c0.18,0.03,0.33,0.1,0.46,0.2c0.13,0.1,0.2,0.26,0.2,0.46c0,0.14-0.02,0.24-0.06,0.32c-0.04,0.08-0.09,0.15-0.16,0.22
	c-0.1,0.11-0.24,0.19-0.42,0.23c-0.18,0.05-0.36,0.07-0.55,0.07c-0.17,0-0.33-0.02-0.5-0.06c-0.17-0.04-0.32-0.12-0.44-0.24
	c-0.08-0.08-0.15-0.19-0.21-0.3c-0.06-0.12-0.08-0.25-0.08-0.38h-1.05c0,0.27,0.05,0.52,0.17,0.74c0.11,0.22,0.25,0.41,0.42,0.57
	c0.23,0.21,0.5,0.36,0.79,0.45c0.29,0.09,0.59,0.13,0.89,0.13c0.35,0,0.68-0.05,0.99-0.14c0.31-0.09,0.57-0.25,0.79-0.46
	c0.14-0.14,0.25-0.3,0.34-0.49c0.09-0.19,0.13-0.42,0.13-0.68c0-0.24-0.04-0.45-0.12-0.64C36.41,55.77,36.3,55.61,36.16,55.47z
	 M8.45,66.44l-3.03-4.8H4.05v7.08h1.27v-4.87l3.07,4.87h1.33v-7.08H8.45V66.44z M38.56,60.78l0.4,0.57l1.44-0.83l1.43,0.83l0.4-0.57
	L40.4,59.4L38.56,60.78z M39.67,61.84l-2.42,6.89h1.3l0.46-1.36h2.82l0.46,1.36h1.35l-2.42-6.89H39.67z M39.41,66.2l1.01-2.99
	l1.01,2.99H39.41z M49.45,68.73h5.05v-1.17h-3.76v-1.94h3.31v-1.17h-3.31v-1.64h3.76v-1.17h-5.05V68.73z M43.04,62.84h2.1v5.89h1.29
	v-5.89h2.1v-1.2h-5.49V62.84z M57.06,61.64h-1.29v7.08h4.58v-1.22h-3.29V61.64z M25.53,64.11c0.03-0.18,0.08-0.36,0.15-0.52
	c0.07-0.17,0.16-0.31,0.28-0.44c0.14-0.15,0.3-0.27,0.49-0.35c0.19-0.08,0.39-0.12,0.59-0.12c0.22,0,0.42,0.04,0.61,0.11
	c0.19,0.07,0.34,0.18,0.45,0.33c0.09,0.11,0.17,0.23,0.22,0.35c0.05,0.12,0.09,0.25,0.1,0.4h1.32c-0.03-0.28-0.1-0.55-0.21-0.82
	c-0.11-0.27-0.26-0.51-0.47-0.72c-0.27-0.27-0.58-0.48-0.93-0.61c-0.35-0.14-0.72-0.21-1.1-0.21c-0.38,0-0.74,0.07-1.08,0.2
	c-0.34,0.13-0.65,0.33-0.92,0.6c-0.19,0.19-0.35,0.4-0.46,0.61c-0.12,0.21-0.21,0.44-0.26,0.68c-0.06,0.24-0.1,0.49-0.12,0.76
	c-0.02,0.27-0.03,0.54-0.03,0.83c0,0.29,0.01,0.57,0.03,0.83c0.02,0.26,0.06,0.51,0.12,0.75c0.06,0.24,0.15,0.47,0.26,0.68
	c0.12,0.21,0.27,0.42,0.46,0.61c0.27,0.27,0.58,0.47,0.92,0.6c0.34,0.13,0.7,0.19,1.08,0.19c0.38,0,0.75-0.07,1.1-0.22
	c0.35-0.14,0.66-0.35,0.93-0.62c0.21-0.21,0.36-0.45,0.47-0.72c0.11-0.27,0.18-0.54,0.21-0.82h-1.32c-0.03,0.29-0.13,0.55-0.32,0.77
	c-0.11,0.15-0.26,0.26-0.45,0.33c-0.19,0.08-0.4,0.11-0.61,0.11c-0.21,0-0.4-0.04-0.59-0.12c-0.19-0.08-0.35-0.2-0.49-0.35
	c-0.12-0.13-0.21-0.27-0.28-0.44c-0.07-0.17-0.11-0.34-0.15-0.52c-0.03-0.18-0.05-0.37-0.05-0.55c-0.01-0.19-0.01-0.36-0.01-0.52
	c0-0.16,0-0.33,0.01-0.52C25.48,64.48,25.5,64.3,25.53,64.11z M35.09,64.41h-2.91v-2.77H30.9v7.08h1.29v-3.09h2.91v3.09h1.29v-7.08
	h-1.29V64.41z M21.8,65.99c0,0.51-0.12,0.92-0.36,1.23c-0.24,0.31-0.62,0.47-1.13,0.47c-0.51,0-0.89-0.16-1.13-0.47
	c-0.24-0.31-0.36-0.72-0.36-1.23v-4.35h-1.29v4.37c0,0.42,0.06,0.8,0.18,1.15c0.12,0.35,0.29,0.65,0.53,0.9
	c0.23,0.25,0.52,0.44,0.87,0.58c0.35,0.14,0.75,0.21,1.21,0.21c0.46,0,0.86-0.07,1.21-0.21c0.35-0.14,0.64-0.33,0.87-0.58
	c0.23-0.25,0.41-0.55,0.52-0.9c0.12-0.35,0.18-0.73,0.18-1.15v-4.37H21.8V65.99z M11.41,68.73h5.05v-1.17H12.7v-1.94h3.31v-1.17
	H12.7v-1.64h3.76v-1.17h-5.05V68.73z"/>
</svg>
